# File created by Blade
# Date/Time:  Tue Apr 07 20:29:43 2015
#---------------------------------------------------------
:version 1.10
:name HOM
:units
  mass 1.0
  length 1.000000
  angle deg
:documentation
     Acclaim Skeleton File
:root
   axis xyz
   order TX TY TZ RX RY RZ
   position 0.000000 0.000000 0.000000
   orientation 0 0 0
:bonedata
   begin
      id 1
      name Spine_dum
      direction 0.000000 1.000000 0.000000
      length 4.885285
      axis 0.0 0.0 0.0 xyz
   end
   begin
      id 2
      name LeftUpLeg_dum
      direction 1.000000 0.000000 0.000000
      length 2.672193
      axis 0.0 0.0 0.0 xyz
   end
   begin
      id 3
      name RightUpLeg_dum
      direction -1.000000 0.000000 0.000000
      length 2.672193
      axis 0.0 0.0 0.0 xyz
   end
   begin
      id 4
      name Spine
      direction 0.000000 1.000000 0.000000
      length 0.000000
      axis 0.0 0.0 0.0 xyz
      dof rx ry rz
   end
   begin
      id 5
      name Spine_dum1
      direction 0.000000 1.000000 0.000000
      length 16.494159
      axis 0.0 0.0 0.0 xyz
   end
   begin
      id 6
      name Spine_dum2
      direction 0.000000 1.000000 0.000000
      length 10.663448
      axis 0.0 0.0 0.0 xyz
   end
   begin
      id 7
      name Spine_dum3
      direction 0.000000 1.000000 0.000000
      length 10.663448
      axis 0.0 0.0 0.0 xyz
   end
   begin
      id 8
      name Head
      direction 0.000000 1.000000 0.000000
      length 4.527550
      axis 0.0 0.0 0.0 xyz
      dof rx ry rz
   end
   begin
      id 9
      name LeftShoulder
      direction 1.000000 0.000000 0.000000
      length 7.531907
      axis 0.0 0.0 -90.0 xyz
      dof rx ry rz
   end
   begin
      id 10
      name LeftArm
      direction 1.000000 0.000000 0.000000
      length 10.229199
      axis 0.0 0.0 -90.0 xyz
      dof rx ry rz
   end
   begin
      id 11
      name LeftForeArm
      direction 1.000000 0.000000 0.000000
      length 8.673495
      axis 0.0 0.0 -90.0 xyz
      dof ry rz rx
   end
   begin
      id 12
      name LeftHand
      direction 0.000000 0.000000 0.000000
      length 0.000000
      axis 0.0 0.0 -90.0 xyz
      dof rx ry rz
   end
   begin
      id 13
      name LeftHand_dum1
      direction 0.000000 0.000000 0.000000
      length 0.000000
      axis 0.0 0.0 -90.0 xyz
   end
   begin
      id 14
      name LeftHand_dum2
      direction 1.000000 0.000000 0.000000
      length 3.937000
      axis 0.0 0.0 -90.0 xyz
   end
   begin
      id 15
      name LeftHandThumb1
      direction 0.000000 0.000000 1.000000
      length 3.937000
      axis 0.0 0.0 -90.0 xyz
      dof rx rz ry
   end
   begin
      id 16
      name RightShoulder
      direction -1.000000 0.000000 0.000000
      length 7.531907
      axis 0.0 0.0 90.0 xyz
      dof rx ry rz
   end
   begin
      id 17
      name RightArm
      direction -1.000000 0.000000 0.000000
      length 10.229199
      axis 0.0 0.0 90.0 xyz
      dof rx ry rz
   end
   begin
      id 18
      name RightForeArm
      direction -1.000000 0.000000 0.000000
      length 8.673495
      axis 0.0 0.0 90.0 xyz
      dof ry rz rx
   end
   begin
      id 19
      name RightHand
      direction 0.000000 0.000000 0.000000
      length 0.000000
      axis 0.0 0.0 90.0 xyz
      dof rx ry rz
   end
   begin
      id 20
      name RightHand_dum1
      direction 0.000000 0.000000 0.000000
      length 0.000000
      axis 0.0 0.0 90.0 xyz
   end
   begin
      id 21
      name RightHand_dum2
      direction -1.000000 0.000000 0.000000
      length 3.937000
      axis 0.0 0.0 90.0 xyz
   end
   begin
      id 22
      name RightHandThumb1
      direction 0.000000 0.000000 1.000000
      length 3.937000
      axis 0.0 0.0 90.0 xyz
      dof rx rz ry
   end
   begin
      id 23
      name LeftUpLeg
      direction 0.000000 -1.000000 0.000000
      length 16.263388
      axis 0.0 0.0 0.0 xyz
      dof rx ry rz
   end
   begin
      id 24
      name LeftLeg
      direction 0.000000 -1.000000 0.000000
      length 14.328163
      axis 0.0 0.0 0.0 xyz
      dof rx ry rz
   end
   begin
      id 25
      name LeftFoot
      direction 0.000000 -0.258819 0.965926
      length 5.031290
      axis 15.0 0.0 0.0 xyz
      dof rx ry rz
   end
   begin
      id 26
      name LeftToeBase
      direction 0.000000 0.000000 1.000000
      length 2.952750
      axis 0.0 0.0 0.0 xyz
      dof rx ry rz
   end
   begin
      id 27
      name RightUpLeg
      direction 0.000000 -1.000000 0.000000
      length 16.263388
      axis 0.0 0.0 0.0 xyz
      dof rx ry rz
   end
   begin
      id 28
      name RightLeg
      direction 0.000000 -1.000000 0.000000
      length 14.328163
      axis 0.0 0.0 0.0 xyz
      dof rx ry rz
   end
   begin
      id 29
      name RightFoot
      direction 0.000000 -0.258819 0.965926
      length 5.031290
      axis 15.0 0.0 0.0 xyz
      dof rx ry rz
   end
   begin
      id 30
      name RightToeBase
      direction 0.000000 0.000000 1.000000
      length 2.952750
      axis 0.0 0.0 0.0 xyz
      dof rx ry rz
   end
:hierarchy
   begin
      root Spine_dum LeftUpLeg_dum RightUpLeg_dum
      Spine_dum Spine
      LeftUpLeg_dum LeftUpLeg
      RightUpLeg_dum RightUpLeg
      Spine Spine_dum1 Spine_dum2 Spine_dum3
      Spine_dum1 Head
      Spine_dum2 LeftShoulder
      Spine_dum3 RightShoulder
      LeftShoulder LeftArm
      LeftArm LeftForeArm
      LeftForeArm LeftHand
      LeftHand LeftHand_dum1 LeftHand_dum2
      LeftHand_dum1 LeftHandThumb1
      RightShoulder RightArm
      RightArm RightForeArm
      RightForeArm RightHand
      RightHand RightHand_dum1 RightHand_dum2
      RightHand_dum1 RightHandThumb1
      LeftUpLeg LeftLeg
      LeftLeg LeftFoot
      LeftFoot LeftToeBase
      RightUpLeg RightLeg
      RightLeg RightFoot
      RightFoot RightToeBase
   end

# File created by Blade
# Date/Time:  Tue Apr 07 20:29:34 2015
# Frame Rate: 120.000 fps
#------------------------------------------------------
:FULLY-SPECIFIED
:DEGREES
574
root 2.546055 34.337210 -2.965905 -17.256925 23.696465 -33.859475
Spine 9.227237 1.710649 24.167450
Head 1.997800 3.218975 4.241739
LeftShoulder -22.593694 43.828739 5.564065
LeftArm 50.698443 2.110435 -75.569253
LeftForeArm 0.619794 0.000000 14.874038
LeftHand 6.761915 -0.000000 -7.326820
LeftHandThumb1 -26.253704 0.000000 33.147579
RightShoulder -5.316029 -6.116428 -17.643085
RightArm 9.141006 -17.762433 83.842143
RightForeArm 9.746297 -0.000000 31.394754
RightHand 1.053889 -0.000000 18.927631
RightHandThumb1 -24.326973 -0.000000 -32.862282
LeftUpLeg -3.546486 -6.400124 29.718488
LeftLeg 15.196621 -0.000000 -0.000000
LeftFoot -7.027756 -5.001615 -31.267576
LeftToeBase 7.186985 -0.000000 -0.000000
RightUpLeg -82.820373 12.121205 -24.233386
RightLeg 153.283241 -0.000000 -0.000000
RightFoot 52.732068 26.787769 -4.874892
RightToeBase 33.817382 -0.000000 -0.000000
575
root 2.526769 34.328022 -2.956292 -17.310918 23.721503 -33.980118
Spine 9.214976 1.713717 24.111701
Head 2.028323 3.159863 4.293647
LeftShoulder -22.604305 43.886053 5.513680
LeftArm 50.764398 2.022926 -75.677327
LeftForeArm 0.724617 -0.000000 14.918085
LeftHand 6.671807 -0.000000 -7.352194
LeftHandThumb1 -26.253704 0.000000 33.147579
RightShoulder -5.330086 -6.155712 -17.974629
RightArm 9.112287 -17.839893 84.028792
RightForeArm 9.810324 0.000000 31.430608
RightHand 0.700344 -0.000000 18.692345
RightHandThumb1 -24.326973 -0.000000 -32.862282
LeftUpLeg -3.562782 -6.613189 29.837417
LeftLeg 15.195519 -0.000000 -0.000000
LeftFoot -7.161080 -4.943043 -30.704424
LeftToeBase 6.922239 -0.000000 -0.000000
RightUpLeg -82.765892 12.105314 -24.742770
RightLeg 153.323462 -0.000000 -0.000000
RightFoot 52.791466 27.022447 -4.932417
RightToeBase 33.790136 -0.000000 -0.000000
576
root 2.510771 34.316311 -2.949988 -17.321747 23.745950 -34.065180
Spine 9.176448 1.766359 24.048188
Head 2.051990 3.101508 4.338979
LeftShoulder -22.597356 43.893345 5.456963
LeftArm 50.779472 1.918809 -75.776994
LeftForeArm 0.865480 -0.000000 15.008676
LeftHand 6.728561 0.000000 -7.405873
LeftHandThumb1 -26.253704 0.000000 33.147579
RightShoulder -5.357332 -6.151143 -18.329354
RightArm 9.069668 -17.919176 84.258177
RightForeArm 9.737611 -0.000000 31.339613
RightHand 0.637344 0.000000 18.672924
RightHandThumb1 -24.326973 -0.000000 -32.862282
LeftUpLeg -3.604871 -6.875173 29.902756
LeftLeg 15.198479 -0.000000 -0.000000
LeftFoot -7.293901 -4.782701 -29.948092
LeftToeBase 6.438969 -0.000000 -0.000000
RightUpLeg -82.739540 12.071513 -25.279988
RightLeg 153.327842 -0.000000 -0.000000
RightFoot 52.937137 27.228187 -4.933628
RightToeBase 33.788418 -0.000000 -0.000000
577
root 2.498200 34.304084 -2.943825 -17.351225 23.743783 -34.105155
Spine 9.185353 1.789490 23.956797
Head 2.092544 3.088351 4.403464
LeftShoulder -22.711844 43.956139 5.284102
LeftArm 50.859614 1.816381 -75.824987
LeftForeArm 0.908184 0.000000 15.120274
LeftHand 6.598749 -0.000000 -7.402817
LeftHandThumb1 -26.253704 0.000000 33.147579
RightShoulder -5.301403 -6.147165 -18.660701
RightArm 8.972409 -17.972386 84.450502
RightForeArm 9.584173 -0.000000 31.405135
RightHand 0.763781 -0.000000 18.727510
RightHandThumb1 -24.326973 -0.000000 -32.862282
LeftUpLeg -3.564523 -7.238911 29.899910
LeftLeg 15.156320 -0.000000 -0.000000
LeftFoot -7.432371 -4.479001 -28.978269
LeftToeBase 5.500970 -0.000000 -0.000000
RightUpLeg -82.681659 12.084335 -25.827441
RightLeg 153.345479 -0.000000 -0.000000
RightFoot 52.987564 27.365944 -4.948146
RightToeBase 33.800986 -0.000000 -0.000000
